# xmcd
#
# Track frame offsets: 
#        150
#        53071
#        88229
#        123692
#        150288
#        185408
#        203238
#        216195
#        249314
#
# Disc length: 3914 seconds
#
# Revision: 1
# Processed by: cddbd v1.5.2PL0 Copyright (c) Steve Scherf et al.
# Submitted via: ExactAudioCopyFreeDBPlugin 1.0
#
DISCID=790f4809
DTITLE=Barmer Boys - At Home
DYEAR=2012
DGENRE=World
TTITLE0=Moomal
TTITLE1=Manikar
TTITLE2=Raichand
TTITLE3=Instrumental Jam #1
TTITLE4=Gale ka haar sunehra
TTITLE5=Instrumental Jam #2
TTITLE6=Kachi kariyo (prelude)
TTITLE7=Kachi kariyo
TTITLE8=Hum jaane
EXTD=
EXTT0=
EXTT1=
EXTT2=
EXTT3=
EXTT4=
EXTT5=
EXTT6=
EXTT7=
EXTT8=
PLAYORDER=
